<?xml version="1.0" standalone="no"?>
<!DOCTYPE svg PUBLIC "-//W3C//DTD SVG 20010904//EN"
 "http://www.w3.org/TR/2001/REC-SVG-20010904/DTD/svg10.dtd">
<svg version="1.0" xmlns="http://www.w3.org/2000/svg"
 width="500.000000pt" height="500.000000pt" viewBox="0 0 500.000000 500.000000"
 preserveAspectRatio="xMidYMid meet">
<metadata>
Created by potrace 1.16, written by Peter Selinger 2001-2019
</metadata>
<g transform="translate(0.000000,500.000000) scale(0.100000,-0.100000)"
fill="#000000" stroke="none">
<path d="M0 2500 l0 -2500 2500 0 2500 0 0 2500 0 2500 -2500 0 -2500 0 0
-2500z m1391 340 c-55 -6 -69 -12 -93 -39 -28 -31 -39 -30 -15 2 21 29 70 47
122 46 50 -2 49 -2 -14 -9z m128 -16 c2 -2 -2 -22 -9 -44 -13 -41 -31 -49 -60
-29 -12 8 -9 9 12 5 22 -5 28 -2 37 26 13 36 13 34 -19 48 -24 10 -23 10 5 4
16 -3 32 -7 34 -10z m58 -261 c-1 -54 -3 -12 -3 92 0 105 2 149 3 98 2 -51 2
-136 0 -190z m100 0 c-1 -54 -3 -12 -3 92 0 105 2 149 3 98 2 -51 2 -136 0
-190z m70 0 c-1 -54 -3 -12 -3 92 0 105 2 149 3 98 2 -51 2 -136 0 -190z m252
248 c61 -44 80 -169 39 -251 -28 -54 -61 -79 -113 -85 -35 -4 -36 -4 -9 4 88
23 134 86 134 182 0 89 -43 149 -121 170 l-34 9 38 -5 c20 -2 50 -13 66 -24z
m138 -243 c-1 -51 -3 -10 -3 92 0 102 2 143 3 93 2 -51 2 -135 0 -185z m130
187 c47 50 70 72 52 50 -55 -67 -136 -155 -142 -155 -4 0 -6 44 -5 98 l2 97 4
-90 3 -90 86 90z m92 27 c-24 -26 -59 -63 -77 -82 l-32 -36 71 -87 c40 -48 70
-89 68 -92 -2 -2 -37 37 -77 87 -63 78 -71 92 -60 106 40 51 143 161 147 156
3 -2 -15 -26 -40 -52z m-953 -21 c-48 -10 -41 -28 23 -60 70 -36 91 -62 91
-114 0 -52 -22 -91 -64 -111 -39 -18 -119 -21 -165 -5 -29 10 -31 14 -31 60 0
27 3 49 8 48 16 -1 76 -28 65 -28 -6 -1 -23 3 -37 9 -25 9 -26 8 -26 -30 0
-34 4 -42 26 -50 38 -15 121 -12 154 5 41 21 60 53 60 100 0 47 -27 79 -98
114 -66 33 -67 72 -2 70 23 -1 23 -2 -4 -8z m-105 -97 c12 -10 42 -30 67 -44
67 -36 68 -81 2 -79 -23 1 -22 2 5 8 51 11 43 37 -20 67 -64 31 -84 55 -90
110 l-5 39 11 -41 c5 -23 19 -50 30 -60z m632 78 c36 -39 33 -136 -4 -173 -11
-11 -33 -19 -54 -19 l-35 0 0 105 0 105 38 0 c25 0 45 -7 55 -18z m689 -21
c15 -17 28 -41 27 -54 -1 -17 -3 -16 -10 9 -14 50 -43 69 -104 69 -43 0 -59
-5 -79 -24 -66 -62 -55 -195 20 -229 34 -16 79 -15 114 3 47 24 67 75 30 75
-11 0 -20 -5 -20 -12 0 -18 -31 -48 -49 -48 -10 1 -6 6 10 15 15 8 29 23 32
35 3 14 13 20 31 20 36 0 34 -30 -3 -72 -27 -31 -34 -33 -91 -33 -57 0 -64 3
-90 32 -61 68 -45 194 30 235 52 28 116 20 152 -21z m289 10 c29 -29 29 -30
27 -143 l-2 -113 -5 118 c-6 109 -8 120 -30 138 -34 28 -96 25 -126 -6 l-25
-24 0 25 c0 14 4 22 10 19 5 -3 18 -1 27 4 10 6 35 11 56 11 29 0 45 -7 68
-29z m263 8 c18 -14 26 -29 25 -47 l-2 -27 -4 27 c-6 37 -38 58 -89 58 -47 0
-94 -30 -94 -61 0 -27 25 -24 44 6 9 14 24 25 34 24 13 0 12 -2 -5 -9 -12 -5
-24 -18 -28 -29 -4 -14 -15 -21 -31 -21 -36 0 -32 41 7 74 39 33 104 36 143 5z
m307 -8 c29 -29 29 -30 27 -143 l-2 -113 -5 118 c-6 109 -8 120 -30 138 -34
28 -96 25 -126 -6 l-25 -24 0 25 c0 14 4 22 10 19 5 -3 18 -1 27 4 10 6 35 11
56 11 29 0 45 -7 68 -29z m277 18 c6 -1 12 -11 12 -23 0 -19 0 -19 -20 2 -14
15 -32 22 -58 22 -102 -1 -160 -103 -118 -205 26 -61 117 -86 170 -44 l26 20
0 -29 c0 -34 -34 -82 -58 -81 -13 0 -11 3 5 9 23 10 43 39 43 65 0 14 -2 14
-25 -1 -32 -21 -107 -14 -137 12 -72 65 -60 205 22 247 32 16 60 18 138 6z
m296 -10 c18 -14 26 -29 25 -47 l-2 -27 -4 27 c-6 37 -38 58 -89 58 -47 0 -94
-30 -94 -61 0 -27 25 -24 44 6 9 14 24 25 34 24 13 0 12 -2 -5 -9 -12 -5 -24
-18 -28 -29 -4 -14 -15 -21 -31 -21 -36 0 -32 41 7 74 39 33 104 36 143 5z
m-1347 -191 c-1 -40 -3 -10 -3 67 0 77 1 110 3 73 2 -37 2 -100 0 -140z m570
0 c-1 -40 -3 -10 -3 67 0 77 1 110 3 73 2 -37 2 -100 0 -140z m540 0 c-1 -40
-3 -10 -3 67 0 77 1 110 3 73 2 -37 2 -100 0 -140z m-1308 161 c-14 -5 -33
-24 -42 -42 -9 -17 -16 -27 -16 -22 -1 6 8 25 19 43 13 21 27 32 42 31 22 -1
22 -1 -3 -10z m67 3 c14 -9 34 -47 34 -64 -1 -7 -7 2 -15 20 -8 18 -24 36 -37
42 -13 5 -16 9 -8 9 8 0 20 -3 26 -7z m298 -8 c9 -8 16 -23 16 -32 0 -12 -4
-9 -13 8 -14 27 -36 35 -72 26 -32 -8 -38 -27 -45 -136 l-6 -95 -2 90 c-2 74
2 96 18 123 16 26 26 32 54 32 19 0 42 -7 50 -16z m274 4 c7 -7 12 -25 12 -40
0 -25 -3 -28 -32 -27 -31 2 -31 2 -5 6 35 6 39 49 5 63 -14 5 -17 9 -7 9 8 1
20 -4 27 -11z m296 -4 c9 -8 16 -23 16 -32 0 -12 -4 -9 -13 8 -14 27 -36 35
-72 26 -32 -8 -38 -27 -45 -136 l-6 -95 -2 90 c-2 74 2 96 18 123 16 26 26 32
54 32 19 0 42 -7 50 -16z m220 6 c-33 -13 -54 -50 -54 -96 0 -45 30 -94 57
-94 9 0 14 -3 10 -6 -12 -12 -48 9 -62 36 -36 70 -4 168 55 169 8 0 5 -4 -6
-9z m85 -16 c43 -55 16 -185 -37 -184 -14 1 -14 3 3 12 34 19 44 41 45 90 0
62 -7 78 -44 94 -26 11 -27 13 -9 14 12 0 31 -12 42 -26z m279 14 c7 -7 12
-25 12 -40 0 -25 -3 -28 -32 -27 -31 2 -31 2 -5 6 35 6 39 49 5 63 -14 5 -17
9 -7 9 8 1 20 -4 27 -11z m-971 -83 c-43 -15 -40 -13 -56 -42 -17 -33 -14 -51
14 -78 32 -33 95 -35 125 -3 15 16 20 18 20 6 0 -18 -41 -38 -80 -38 -43 0
-77 19 -90 51 -24 57 19 117 85 118 11 0 3 -6 -18 -14z m880 0 c-43 -15 -40
-13 -56 -42 -17 -33 -14 -51 14 -78 32 -33 95 -35 125 -3 15 16 20 18 20 6 0
-18 -41 -38 -80 -38 -43 0 -77 19 -90 51 -24 57 19 117 85 118 11 0 3 -6 -18
-14z m-1670 -57 c54 -70 67 -88 59 -88 -3 0 -26 28 -52 63 -64 85 -61 82 -79
67 -10 -8 -16 -33 -17 -74 l-2 -61 -3 59 c-3 45 0 63 13 77 9 11 20 19 25 19
4 0 29 -28 56 -62z m291 35 c-54 -2 -98 -5 -98 -7 0 -21 26 -66 43 -74 18 -8
18 -11 5 -11 -20 -1 -43 31 -53 72 l-7 27 103 -2 104 -2 -97 -3z m536 0 c-49
-9 -71 -82 -26 -84 13 0 14 -2 3 -6 -15 -6 -41 22 -41 44 0 21 38 53 63 52 21
-2 22 -2 1 -6z m51 -69 c-9 -14 -25 -24 -38 -23 -14 0 -17 2 -7 6 30 11 50 37
51 67 l2 31 4 -28 c3 -16 -3 -39 -12 -53z m829 69 c-49 -9 -71 -82 -26 -84 13
0 14 -2 3 -6 -15 -6 -41 22 -41 44 0 21 38 53 63 52 21 -2 22 -2 1 -6z m51
-69 c-9 -14 -25 -24 -38 -23 -14 0 -17 2 -7 6 30 11 50 37 51 67 l2 31 4 -28
c3 -16 -3 -39 -12 -53z m-818 -36 c-2 -13 -4 -5 -4 17 -1 22 1 32 4 23 2 -10
2 -28 0 -40z m880 0 c-2 -13 -4 -5 -4 17 -1 22 1 32 4 23 2 -10 2 -28 0 -40z
m-486 -93 c17 -14 25 -25 19 -25 -20 0 -60 49 -59 72 2 23 2 23 6 1 2 -12 18
-34 34 -48z m62 15 c11 0 18 -3 14 -6 -13 -14 -54 7 -65 33 l-12 28 21 -27
c11 -16 30 -28 42 -28z m130 1 c-28 -36 -60 -51 -113 -49 l-45 1 51 6 c61 8
101 32 111 69 3 15 8 21 11 13 2 -7 -4 -25 -15 -40z"/>
<path d="M1850 2655 l0 -95 28 0 c36 0 61 27 69 73 11 70 -16 117 -68 117
l-29 0 0 -95z"/>
</g>
</svg>
